<svg id="visual" viewBox="0 0 900 600" width="900" height="600" xmlns="http://www.w3.org/2000/svg" xmlns:xlink="http://www.w3.org/1999/xlink" version="1.1"><g stroke-width="1" stroke-linejoin="bevel"><path d="M428 301L353.5 330L423 371Z" fill="#889d5b" stroke="#889d5b"></path><path d="M353.5 330L317.5 387L423 371Z" fill="#cbbc95" stroke="#cbbc95"></path><path d="M541.5 273L438 214L428 301Z" fill="#f1e4db" stroke="#f1e4db"></path><path d="M428 301L336.5 198L353.5 330Z" fill="#6c934d" stroke="#6c934d"></path><path d="M317.5 387L346.5 471L423 371Z" fill="#cbbc95" stroke="#cbbc95"></path><path d="M438 214L336.5 198L428 301Z" fill="#a2a76b" stroke="#a2a76b"></path><path d="M198 295L222 413L317.5 387Z" fill="#4a8a43" stroke="#4a8a43"></path><path d="M571.5 388L541.5 273L423 371Z" fill="#e8d6c3" stroke="#e8d6c3"></path><path d="M423 371L541.5 273L428 301Z" fill="#889d5b" stroke="#889d5b"></path><path d="M545.5 489L571.5 388L423 371Z" fill="#f8f4f2" stroke="#f8f4f2"></path><path d="M198 295L317.5 387L353.5 330Z" fill="#b8b17f" stroke="#b8b17f"></path><path d="M317.5 387L222 413L346.5 471Z" fill="#f8f4f2" stroke="#f8f4f2"></path><path d="M353.5 600L454 528L346.5 471Z" fill="#f8f4f2" stroke="#f8f4f2"></path><path d="M346.5 471L454 528L423 371Z" fill="#15803d" stroke="#15803d"></path><path d="M336.5 198L198 295L353.5 330Z" fill="#a2a76b" stroke="#a2a76b"></path><path d="M454 528L545.5 489L423 371Z" fill="#15803d" stroke="#15803d"></path><path d="M438 214L321.5 112L336.5 198Z" fill="#15803d" stroke="#15803d"></path><path d="M336.5 198L199 208L198 295Z" fill="#dbc8ac" stroke="#dbc8ac"></path><path d="M478 85L321.5 112L438 214Z" fill="#6c934d" stroke="#6c934d"></path><path d="M321.5 112L199 208L336.5 198Z" fill="#f1e4db" stroke="#f1e4db"></path><path d="M97.5 422L217 501L222 413Z" fill="#4a8a43" stroke="#4a8a43"></path><path d="M222 413L217 501L346.5 471Z" fill="#4a8a43" stroke="#4a8a43"></path><path d="M705 284L592.5 183L541.5 273Z" fill="#dbc8ac" stroke="#dbc8ac"></path><path d="M541.5 273L592.5 183L438 214Z" fill="#a2a76b" stroke="#a2a76b"></path><path d="M592.5 183L478 85L438 214Z" fill="#a2a76b" stroke="#a2a76b"></path><path d="M217 501L353.5 600L346.5 471Z" fill="#889d5b" stroke="#889d5b"></path><path d="M454 528L480 600L545.5 489Z" fill="#dbc8ac" stroke="#dbc8ac"></path><path d="M353.5 600L480 600L454 528Z" fill="#4a8a43" stroke="#4a8a43"></path><path d="M199 208L121.5 285L198 295Z" fill="#cbbc95" stroke="#cbbc95"></path><path d="M198 295L97.5 422L222 413Z" fill="#b8b17f" stroke="#b8b17f"></path><path d="M198 109L135.5 196L199 208Z" fill="#dbc8ac" stroke="#dbc8ac"></path><path d="M199 208L135.5 196L121.5 285Z" fill="#cbbc95" stroke="#cbbc95"></path><path d="M207 0L198 109L321.5 112Z" fill="#f8f4f2" stroke="#f8f4f2"></path><path d="M321.5 112L198 109L199 208Z" fill="#b8b17f" stroke="#b8b17f"></path><path d="M545.5 489L694 414L571.5 388Z" fill="#15803d" stroke="#15803d"></path><path d="M571.5 388L705 284L541.5 273Z" fill="#6c934d" stroke="#6c934d"></path><path d="M694 530L694 414L545.5 489Z" fill="#6c934d" stroke="#6c934d"></path><path d="M592.5 183L583.5 85L478 85Z" fill="#f8f4f2" stroke="#f8f4f2"></path><path d="M659 107L583.5 85L592.5 183Z" fill="#dbc8ac" stroke="#dbc8ac"></path><path d="M694 414L705 284L571.5 388Z" fill="#889d5b" stroke="#889d5b"></path><path d="M121.5 285L97.5 422L198 295Z" fill="#e8d6c3" stroke="#e8d6c3"></path><path d="M217 501L218 600L353.5 600Z" fill="#15803d" stroke="#15803d"></path><path d="M0 371L97.5 422L121.5 285Z" fill="#15803d" stroke="#15803d"></path><path d="M141.5 600L218 600L217 501Z" fill="#4a8a43" stroke="#4a8a43"></path><path d="M480 600L589.5 600L545.5 489Z" fill="#e8d6c3" stroke="#e8d6c3"></path><path d="M705 284L704 213L592.5 183Z" fill="#f8f4f2" stroke="#f8f4f2"></path><path d="M553.5 0L431 0L478 85Z" fill="#a2a76b" stroke="#a2a76b"></path><path d="M478 85L431 0L321.5 112Z" fill="#4a8a43" stroke="#4a8a43"></path><path d="M431 0L351.5 0L321.5 112Z" fill="#15803d" stroke="#15803d"></path><path d="M704 213L659 107L592.5 183Z" fill="#6c934d" stroke="#6c934d"></path><path d="M583.5 85L553.5 0L478 85Z" fill="#4a8a43" stroke="#4a8a43"></path><path d="M97.5 422L93.5 514L217 501Z" fill="#f8f4f2" stroke="#f8f4f2"></path><path d="M589.5 600L694 530L545.5 489Z" fill="#4a8a43" stroke="#4a8a43"></path><path d="M694 414L788.5 373L705 284Z" fill="#15803d" stroke="#15803d"></path><path d="M675 0L553.5 0L583.5 85Z" fill="#f1e4db" stroke="#f1e4db"></path><path d="M93.5 514L141.5 600L217 501Z" fill="#a2a76b" stroke="#a2a76b"></path><path d="M589.5 600L658 600L694 530Z" fill="#a2a76b" stroke="#a2a76b"></path><path d="M198 109L90.5 113L135.5 196Z" fill="#4a8a43" stroke="#4a8a43"></path><path d="M0 197L0 306L121.5 285Z" fill="#e8d6c3" stroke="#e8d6c3"></path><path d="M97.5 422L0 529L93.5 514Z" fill="#15803d" stroke="#15803d"></path><path d="M114.5 0L90.5 113L198 109Z" fill="#cbbc95" stroke="#cbbc95"></path><path d="M351.5 0L207 0L321.5 112Z" fill="#a2a76b" stroke="#a2a76b"></path><path d="M773.5 530L694 414L694 530Z" fill="#889d5b" stroke="#889d5b"></path><path d="M773.5 530L788.5 373L694 414Z" fill="#f1e4db" stroke="#f1e4db"></path><path d="M705 284L783.5 228L704 213Z" fill="#dbc8ac" stroke="#dbc8ac"></path><path d="M704 213L773.5 124L659 107Z" fill="#cbbc95" stroke="#cbbc95"></path><path d="M788.5 373L793.5 282L705 284Z" fill="#a2a76b" stroke="#a2a76b"></path><path d="M0 197L121.5 285L135.5 196Z" fill="#dbc8ac" stroke="#dbc8ac"></path><path d="M0 306L0 371L121.5 285Z" fill="#dbc8ac" stroke="#dbc8ac"></path><path d="M93.5 514L0 600L141.5 600Z" fill="#b8b17f" stroke="#b8b17f"></path><path d="M793.5 282L783.5 228L705 284Z" fill="#dbc8ac" stroke="#dbc8ac"></path><path d="M659 107L675 0L583.5 85Z" fill="#15803d" stroke="#15803d"></path><path d="M90.5 113L0 197L135.5 196Z" fill="#f8f4f2" stroke="#f8f4f2"></path><path d="M0 82L0 197L90.5 113Z" fill="#dbc8ac" stroke="#dbc8ac"></path><path d="M782.5 600L773.5 530L694 530Z" fill="#f8f4f2" stroke="#f8f4f2"></path><path d="M900 217L773.5 124L783.5 228Z" fill="#cbbc95" stroke="#cbbc95"></path><path d="M783.5 228L773.5 124L704 213Z" fill="#889d5b" stroke="#889d5b"></path><path d="M773.5 124L675 0L659 107Z" fill="#6c934d" stroke="#6c934d"></path><path d="M207 0L114.5 0L198 109Z" fill="#889d5b" stroke="#889d5b"></path><path d="M0 371L0 529L97.5 422Z" fill="#b8b17f" stroke="#b8b17f"></path><path d="M658 600L782.5 600L694 530Z" fill="#dbc8ac" stroke="#dbc8ac"></path><path d="M900 393L900 329L788.5 373Z" fill="#b8b17f" stroke="#b8b17f"></path><path d="M788.5 373L900 329L793.5 282Z" fill="#f8f4f2" stroke="#f8f4f2"></path><path d="M114.5 0L0 82L90.5 113Z" fill="#4a8a43" stroke="#4a8a43"></path><path d="M0 529L0 600L93.5 514Z" fill="#4a8a43" stroke="#4a8a43"></path><path d="M793.5 282L900 217L783.5 228Z" fill="#15803d" stroke="#15803d"></path><path d="M900 393L788.5 373L900 482Z" fill="#b8b17f" stroke="#b8b17f"></path><path d="M900 482L788.5 373L773.5 530Z" fill="#cbbc95" stroke="#cbbc95"></path><path d="M900 93L790.5 0L773.5 124Z" fill="#889d5b" stroke="#889d5b"></path><path d="M773.5 124L790.5 0L675 0Z" fill="#f8f4f2" stroke="#f8f4f2"></path><path d="M900 329L900 217L793.5 282Z" fill="#4a8a43" stroke="#4a8a43"></path><path d="M114.5 0L0 0L0 82Z" fill="#4a8a43" stroke="#4a8a43"></path><path d="M900 600L900 482L773.5 530Z" fill="#889d5b" stroke="#889d5b"></path><path d="M900 217L900 93L773.5 124Z" fill="#f1e4db" stroke="#f1e4db"></path><path d="M782.5 600L900 600L773.5 530Z" fill="#cbbc95" stroke="#cbbc95"></path><path d="M900 93L900 0L790.5 0Z" fill="#a2a76b" stroke="#a2a76b"></path></g></svg>